<svg width="110" height="17" fill="none" xmlns="http://www.w3.org/2000/svg"><g clip-path="url(#clip0_11730_2)"><path d="M32.013 13.697l4.15 2.51c.76.46 1.69-.22 1.49-1.08l-1.1-4.72 3.67-3.18c.67-.58.31-1.68-.57-1.75l-4.83-.41-1.89-4.46c-.34-.81-1.5-.81-1.84 0l-1.89 4.45-4.83.41c-.88.07-1.24 1.17-.57 1.75l3.67 3.18-1.1 4.72c-.2.86.73 1.54 1.49 1.08l4.15-2.5z" fill="#FCFF51"/></g><g clip-path="url(#clip1_11730_2)"><path d="M78.013 13.697l4.15 2.51c.76.46 1.69-.22 1.49-1.08l-1.1-4.72 3.67-3.18c.67-.58.31-1.68-.57-1.75l-4.83-.41-1.89-4.46c-.34-.81-1.5-.81-1.84 0l-1.89 4.45-4.83.41c-.88.07-1.24 1.17-.57 1.75l3.67 3.18-1.1 4.72c-.2.86.73 1.54 1.49 1.08l4.15-2.5z" fill="#FCFF51"/></g><g clip-path="url(#clip2_11730_2)"><path d="M55.013 13.697l4.15 2.51c.76.46 1.69-.22 1.49-1.08l-1.1-4.72 3.67-3.18c.67-.58.31-1.68-.57-1.75l-4.83-.41-1.89-4.46c-.34-.81-1.5-.81-1.84 0l-1.89 4.45-4.83.41c-.88.07-1.24 1.17-.57 1.75l3.67 3.18-1.1 4.72c-.2.86.73 1.54 1.49 1.08l4.15-2.5z" fill="#FCFF51"/></g><g clip-path="url(#clip3_11730_2)"><path d="M9.013 13.697l4.15 2.51c.76.46 1.69-.22 1.49-1.08l-1.1-4.72 3.67-3.18c.67-.58.31-1.68-.57-1.75l-4.83-.41-1.89-4.46c-.34-.81-1.5-.81-1.84 0l-1.89 4.45-4.83.41c-.88.07-1.24 1.17-.57 1.75l3.67 3.18-1.1 4.72c-.2.86.73 1.54 1.49 1.08l4.15-2.5z" fill="#FCFF51"/></g><g clip-path="url(#clip4_11730_2)"><path d="M101.013 13.697l4.15 2.51c.76.46 1.69-.22 1.49-1.08l-1.1-4.72 3.67-3.18c.67-.58.31-1.68-.57-1.75l-4.83-.41-1.89-4.46c-.34-.81-1.5-.81-1.84 0l-1.89 4.45-4.83.41c-.88.07-1.24 1.17-.57 1.75l3.67 3.18-1.1 4.72c-.2.86.73 1.54 1.49 1.08l4.15-2.5z" fill="#FCFF51"/></g><defs><clipPath id="clip0_11730_2"><path fill="#fff" transform="translate(23)" d="M0 0h18v17H0z"/></clipPath><clipPath id="clip1_11730_2"><path fill="#fff" transform="translate(69)" d="M0 0h18v17H0z"/></clipPath><clipPath id="clip2_11730_2"><path fill="#fff" transform="translate(46)" d="M0 0h18v17H0z"/></clipPath><clipPath id="clip3_11730_2"><path fill="#fff" d="M0 0h18v17H0z"/></clipPath><clipPath id="clip4_11730_2"><path fill="#fff" transform="translate(92)" d="M0 0h18v17H0z"/></clipPath></defs></svg>