<svg version="1.0" xmlns="http://www.w3.org/2000/svg" width="3413.333" height="3413.333" viewBox="0 0 2560 2560"><path d="M183.7 1017.6c-.1.1-3.1.5-6.7.8-9.1.7-15.9 1.6-20 2.6-1.9.5-5.1 1.2-7 1.5-3 .5-14.6 3.6-19 5.1-.8.3-1.7.6-2 .6-4 .8-31 13.7-31 14.9 0 .4-1 1.1-2.2 1.5-7.6 2.3-34.3 26.1-43.8 38.9-2.5 3.3-4.7 6.2-5 6.5-1.4 1.4-5 7-5 7.9 0 .5-.4 1.1-.9 1.3-1.2.4-9.3 15.8-13.9 26.5-3.3 7.7-9.2 24.4-9.7 27.8-.1.5-.3 1.2-.4 1.5-.5 1-1.5 5.7-2.5 11.2-.2 1.3-.7 3.4-1 4.8-.4 1.4-.8 4.1-1 6-.3 1.9-.5 3.5-.6 3.5-.2 0-.5 2.4-1.5 12s-1.1 47.7-.1 55.5c.4 3 .9 7.3 1.1 9.5.2 2.2.5 4 .5 4 .1 0 .4 1.6.7 3.5.2 1.9 1.1 6.4 1.9 10 .8 3.6 1.7 7.8 2 9.4 1 5.2 7.1 23 11 32.1 3.7 8.8 13.6 26.7 16.1 29.3.7.7 1.3 1.7 1.3 2.1 0 .4.9 1.9 2 3.2 1.1 1.3 2.3 2.8 2.7 3.4 9.5 12.3 26.3 29 33.4 33.2 1.6 1 2.9 2.1 2.9 2.5 0 .4.5.8 1.1.8.6 0 2.5 1.1 4.2 2.4 10.1 7.6 33.6 17.9 50.6 22.2 10.6 2.7 10.7 2.7 23.6 4.9 15.5 2.6 48.9 2.6 69.5-.1 15.3-1.9 38.7-8.7 51.9-15.1 4.2-2 7.9-3.6 8.4-3.5.4.1.7-.3.7-.8 0-.6.5-1 1-1 1.4 0 14.3-8.4 20.5-13.4 5.2-4.1 20.8-19.6 23.5-23.1.8-1.1 2.8-3.7 4.3-5.7 8.9-12 19.6-35 23.2-50.3.4-1.7.9-3.9 1.2-5 .2-1.1.7-3.5.9-5.3.5-3.1.5-3.2-3-3.2-2 0-14.6-.1-28.1-.1-13.5 0-29.5.1-35.5.1h-11l-1.2 2.7c-.6 1.6-1.3 3.7-1.5 4.8-.6 3.2-6.9 16-10.3 21-4.7 6.8-15.3 16.9-22.2 21.2-3.4 2.1-6.4 3.8-6.7 3.8-.3 0-1.3.5-2.1 1-4.7 3-19.8 7-33.9 9-11.1 1.6-37.6.3-45.6-2.2-1.1-.3-2.9-.7-4-.9-6.2-.7-25.2-9.3-33-14.8-17.2-12.2-33.2-34.2-40-55.1-1.9-6-2.2-6.8-2.4-7.7-.1-.4-.7-2.2-1.2-4-1.2-4.1-2.8-12-3.5-17.3-.3-2.2-.8-4.7-1-5.5-.7-2-1.8-19.7-1.8-29.5 0-11.4 1.3-27.9 2.8-36 .3-1.7.8-4.8 1.2-7 .3-2.2.8-4.3 1.1-4.8.2-.4.7-2 .9-3.5 1.7-9.9 10.1-28.7 18.1-40.9 5.6-8.5 18.2-22 23.3-25 1.7-.9 3-2.1 3-2.5 0-.4.6-.8 1.4-.8.8 0 1.6-.3 1.8-.8 1.1-2.6 24.8-12.5 32.9-13.7 2.4-.4 4.7-.9 5.1-1.1 1.5-.9 13.6-1.8 24.3-1.8 16.9 0 27.3 1.5 38.1 5.4 3.3 1.2 6.4 2.2 6.9 2.4 3 .6 14.2 7.5 19.9 12.2 12.8 10.5 21.3 23 26.4 38.9l3 9h39.1c44.6 0 40.4 1 37.7-9.3-.8-2.9-1.4-5.5-1.4-5.7-.1-1.1-3.3-12.1-4.1-14-.5-1.1-1.9-4.7-3.2-8-4.6-12.1-11.2-23.7-19.8-35-5.5-7.1-17.1-18.9-22.6-23-2.2-1.7-4.4-3.5-5-4.1-4.4-5-36.1-21.8-45-23.8-.5-.2-3.7-1.1-7-2.1s-6.4-2-7-2.1c-.5-.1-3.7-.7-7-1.5-3.3-.7-6.9-1.4-8-1.5-1.1-.1-3.6-.5-5.5-.8-8.1-1.3-16.5-1.8-32.8-2-9.5-.1-17.3-.1-17.5 0zm861.1 46.5c-.5.3-1.1 2.6-1.3 5-.2 2.4-.6 6.2-.9 8.4-.3 2.2-.8 6.9-1.2 10.5-.8 7.4-1.1 10.3-1.4 11-.1.3-.2.9-.1 1.4.1.5-.3 5-1 10-.6 5-1.3 10.9-1.5 13.1-.7 7.6-1.6 14-2 14.4-.2.3-10.9.4-23.8.4l-23.3-.1.1 30.1.1 30 23.6-.1h23.5l.2 65.6c.2 66 .3 72.4 2.2 83 .5 3.1 1.2 6.8 1.4 8.2.7 3.7 4.6 14.9 6.9 19.5 10.7 21.5 32.3 34.9 64.7 40.2 5.7.9 40.6 1.9 44.5 1.3.6-.1 2.6-.1 4.5-.1 8.5.3 17.4.1 19.1-.4 1.8-.6 1.9-2.2 1.9-30.6V1355l-20.2-.1c-26.7-.2-33.5-.7-36.5-3.2-.7-.5-1.3-.7-1.3-.3 0 1.4-6.6-3.3-9.4-6.7-5.8-7.2-6.1-11.6-6.1-82.7v-63.5l36.7-.1c20.1-.1 37-.4 37.5-.7.5-.3.9-13.7.8-29.9v-29.3l-36.5-.2c-20.1-.1-37-.2-37.5-.2-.7-.1-1-12.8-1-36.7 0-22.9-.3-36.8-1-37.2-1.3-.8-60.4-.9-61.7-.1zm-505.1 67.5c-.1.1-3.8.5-8.2.9-23.3 2-47.4 10.4-66.9 23.2-7.6 5.1-25 21.9-26.1 25.3-.3 1.1-1 2-1.4 2-1.5 0-11 20.4-13.1 28-2.1 7.9-3.4 15.7-3.1 18.6.1.7 10.8 1 34.6 1 37.5 0 34.9.3 36.1-4.9.1-.4.3-.9.4-1.2.1-.3.3-.8.4-1.3.8-3.3 5.5-11.2 8.8-14.8 6.8-7.4 21.4-15.5 30.6-16.9 1.7-.3 4.5-.7 6-1 7.7-1.3 22.1-.5 29.7 1.7 2.2.6 4.2 1.2 4.5 1.3 5.1 1.1 17.8 9.7 22.2 15 7.4 8.8 11.3 22.9 10.9 39.2l-.1 4.1-39.7.1c-21.9 0-42.9.2-46.8.5-9.6.7-17.4 1.6-21 2.2-1.6.3-3.9.7-5 .9-8.7 1.3-24 6.2-32 10.3-2.7 1.4-5.3 2.5-5.7 2.4-.5-.1-.8.3-.8.8 0 .6-.5 1-1 1-2.8 0-16.8 12.2-23.1 20-15.5 19.4-20.7 50.7-12.4 74 .1.3.6 2 1 3.7.4 1.8 1.1 3.3 1.5 3.3.4 0 1.1 1.2 1.5 2.7.9 3.6 8.3 14.8 13.1 19.9 8.8 9.2 21.8 17.6 34 21.8 6.8 2.4 18.4 5.3 21.4 5.4.8 0 4.4.4 8 .8 11 1.4 36.3.8 45.5-1.1 9.6-1.9 22.4-7 30.4-12.1 12.8-8.2 21.4-16.6 30.7-29.9 2.5-3.6 4.7-6.5 4.9-6.5.2 0 .3.8.3 1.7-.1 1 .2 3.6.6 5.8.4 2.2.9 5.6 1.2 7.5.5 4.8 1.2 10.1 1.7 12.5.9 4.2 2.1 13.1 1.8 14.2-.1.7.3 1.3.9 1.3.6 0 .9.3.7.7-.3.5 1.6.7 4.1.6 2.6-.2 7.4-.3 10.7-.2 3.3 0 6.7 0 7.5-.1 1.6 0 3.5 0 12.3.3 3.3.1 6.1-.1 6.3-.5.2-.3 1.7-.3 3.3.2 1.6.4 3.2.6 3.5.2.3-.3 3.3-.4 6.6-.3l6.1.2-.1-92.3c-.1-53.6-.5-94.4-1.1-97.3-.5-2.8-1.4-7.5-2-10.5-4.5-23.9-18-45.4-37.3-59.7-11.2-8.3-31.4-17.7-42.2-19.7-1.6-.2-4-.7-5.4-1.1-10.8-2.4-22.8-3.7-37.8-3.9-6.2-.1-11.4-.1-11.5 0zm62.4 165.3c1.5.1 1.5.7-.1 7.3-3 12.4-5 18-9.1 25.6-10.9 20.5-24.5 31.5-43.2 35.1-14.9 2.9-34.8 1.3-40.4-3.2-.7-.5-1.3-.6-1.3-.3 0 .4-1.9-.6-4.2-2.3-10.2-7-14.2-14.5-14.2-26.2.1-7.2 2.7-16.9 4.7-16.9.4 0 .7-.5.7-1 0-1.9 11.7-12.3 14-12.5.3-.1 2.8-.9 5.6-1.8 6.6-2.3 8.4-2.6 17.4-3.3 4.1-.4 7.6-.7 7.7-.8.1-.1 59.7.2 62.4.3zm228.6-165.3c-.1.1-3.6.4-7.8.8-10.5.8-22.4 3.2-31.7 6.3-8.5 2.8-25.2 11-25.2 12.3 0 .5-.9 1.2-2.1 1.5-2.2.7-17.3 15.4-20.4 20-10.2 14.9-14.5 29.6-14 47.9.3 12.6.7 14.6 4 22.8 5.8 14.3 18.8 27 36 35.3 5 2.4 9.7 4.5 10.5 4.7.8.2 1.7.5 2 .8 1.5 1.5 20.6 7.3 41 12.4.8.2 3.3.9 5.5 1.5 2.2.5 5.6 1.3 7.5 1.6 1.9.3 6.8 1.5 11 2.6 4.1 1.2 8.2 2.2 9 2.4 4.3 1 15.7 4.8 16.8 5.7.6.6 1.2.8 1.2.4 0-.3 2.1.5 4.8 1.8 9.8 5 14.5 13 14.1 24.1-.3 9.5-5.6 18-14.9 24.1-3.7 2.4-13.4 5.6-18.5 6-5.9.5-21 .5-23.5 0-1.4-.3-3.8-.8-5.5-1.2-17.7-3.5-33-16.7-38.1-33-.9-2.9-2-5.1-2.5-4.8-.9.5-5 .6-21.7.4-5.2-.1-9.6 0-9.9.3-.2.3-1.7.2-3.1-.2-1.5-.4-3.9-.4-5.4 0-1.6.4-3 .3-3.4-.2-.3-.5-1-.7-1.5-.3-1.3.8-18.5.7-19.9-.1-.5-.3-1-.2-1 .3s-1.2.7-2.6.4c-2.8-.5-2.7-1-.9 9.3 1.7 9.1 11.5 32.5 13.6 32.5.5 0 .9.5.9 1.1 0 3.2 21.9 25.9 24.9 25.9.5 0 1.1.4 1.3.9.4 1.2 12 8.1 19.3 11.5 8.8 4.1 22.7 8.5 32 10.1 21.8 3.7 50.7 4.1 66 .9 1.1-.3 3.8-.7 6-1 5.3-.8 18.5-4.8 22.4-6.8 1.7-.9 3.3-1.6 3.6-1.6.9 0 12.8-6.2 16.9-8.9 7.7-5.1 21.1-17.9 22.2-21.4.3-.9 1-1.7 1.5-1.7s.9-.6.9-1.4c0-.8.4-1.6.8-1.8 2-.7 9-18.1 10.8-26.3 1-5 1.2-26.1.3-31.2-.5-2.6-1.2-6.1-1.5-7.8-.6-3.7-5.4-15.6-6.8-17.1-.6-.7-2.6-3.2-4.5-5.5-1.9-2.4-5.4-6-7.8-7.9-2.4-1.9-5-4.1-5.7-4.8-3.8-3.3-19.6-10.4-32.6-14.7-8-2.6-15.4-4.9-16.4-5.1-1-.2-3.3-.8-5.1-1.4-1.8-.6-4.1-1.3-5.1-1.5-1-.3-9.1-2.3-17.9-4.4-34.9-8.6-49.7-14.2-57.2-21.7-1.3-1.3-2.1-2.4-1.8-2.4.3 0-.2-1.1-1.1-2.5-2.2-3.3-2.1-10.8.1-16.3 3.1-7.7 12.9-14.3 25.4-17.1 4.3-.9 26-.8 30.6.3 12.2 2.7 21.5 8.9 26.2 17.6 1.8 3.2 3.5 8.1 3.7 10.5.1.6 12.3 1 34.3 1.1l34.1.1-.4-2.1c-.2-1.1-.7-3.7-1-5.6-.3-1.9-1.5-6.4-2.6-10-9.7-30.3-32.1-52.2-63.3-62-6.9-2.1-8.5-2.5-13.5-3.5-1.4-.3-3.4-.7-4.6-.9-6.1-1.2-37.7-2.9-38.7-2zm517 0c-.1.1-2.7.5-5.7.9-10.3 1.2-13.5 1.7-20 3.2-3.6.8-7.2 1.6-8 1.8-.8.2-3.1 1-5 1.8s-3.8 1.6-4.2 1.6c-3.6.5-24.5 10.9-29 14.5-1.4 1.1-4.5 3.4-6.8 5.1-6.2 4.5-16.9 16.1-22.2 24-8.1 12.3-13.7 28.2-15.2 43.1l-.4 3.1 34.9-.1h34.9l1.1-4c5.9-22.4 28.6-36.6 58.1-36.6 27.3-.1 48.5 14.8 53.9 37.8.6 2.6 1.3 9 1.5 14.3l.4 9.7h-34.7c-53.2.1-63.3.6-80.3 4.3-4.7 1-9.6 2.1-11 2.4-2.4.5-3.9 1.1-14.2 5.2-2.4.9-5.4 2.5-6.8 3.4-1.4.9-2.9 1.8-3.5 1.9-4.5 1-19.5 14-25.9 22.4-3.4 4.4-8.7 13.8-8.6 15.1 0 .3-.6 1.8-1.5 3.4-5.3 10.3-6.5 36-2.3 50.6 1.5 5 1.3 4.6 2.2 7 4.6 11.7 9.8 19.9 18.2 28.1 6.1 6 19 15.2 20.6 14.6.4-.1.8.2.8.8 0 .5.9 1 1.9 1 1.1 0 2.2.4 2.5.9.6.9 14.8 5.6 20.1 6.6 13.9 2.7 38.8 4 49.5 2.5 3-.5 7.5-1.1 10-1.4 18.9-2.7 41.6-16 54.6-31.9 2.1-2.7 4.4-5.4 4.9-6 .6-.7 2.4-3.4 4.2-6.1l3.1-4.9.6 3.4c.3 1.9.8 4.7 1.1 6.4.3 1.6.8 5 1.1 7.5.5 4.3.9 7.2 1.8 11.5.7 3.8 1.9 14 1.8 14.7-.2.7 6.1 1.3 8.3.8 1.1-.3 7.2-.2 16.3.2 3.5.2 6.6 0 6.8-.4.2-.3 1.7-.3 3.3.2 1.6.4 3.2.6 3.5.2.4-.3 3.4-.4 6.9-.3 10.5.5 15 .2 15.7-.9.7-1.2.5-185.5-.2-188.5-.3-1.1-.9-4.3-1.3-7-.5-2.8-.9-5.2-1-5.5-.1-.3-.5-1.9-.9-3.5-3.3-12.5-9.7-26-16.6-34.9-3.2-4.2-16.7-17.4-20-19.6-1.9-1.3-3.7-2.7-4-3-.3-.3-1.4-1-2.5-1.6-1.1-.6-4.6-2.5-7.7-4.3-3.2-1.7-5.8-2.8-5.8-2.4 0 .4-.4.3-.8-.3-.7-1.2-15.8-6.6-22.2-8-1.9-.4-4.2-.9-5-1.1-1.5-.4-2-.5-9.5-1.6-8.9-1.5-15.6-1.9-28.3-2.1-7.4-.1-13.4 0-13.5 0zM1414 1298c0 1.3-.7 4.4-2.5 12-5.2 21.3-20.9 42.9-36.6 50.2-10.5 4.9-16.6 6.1-30.9 6.1-11.3.1-18.5-1.5-26.3-5.6-12.2-6.4-17.1-14.3-17.1-27.7-.1-10.5 2-15.6 9.3-23 4.2-4.2 11-8.4 15.6-9.7.6-.1 2.8-.7 5-1.3 2.2-.5 7.4-1.3 11.5-1.6 4.1-.4 7.6-.7 7.7-.8.1 0 14.6-.1 32.2-.1 27.9 0 32.1.2 32.1 1.5zm668.7-166.4c-.1.1-3.3.5-7.2.8-3.8.3-8.2.8-9.7 1.1-1.6.3-3.8.7-5 .9-29.1 5.4-56.7 20.4-73.8 40.2-9.5 11-18.1 28.3-20.4 40.6-.2 1.5-.7 3.2-1 3.6-.3.5-.7 3.4-1 6.4l-.4 5.4h34.8l34.8.1 1.2-4.1c1.5-5.1 4.9-12.5 7-15 7.5-9.6 24.1-19.2 34.8-20.1 2.3-.3 4.7-.7 5.3-1 1.5-1 17.9-.6 23.9.5 6.3 1.2 16.1 4.9 17.2 6.4.4.6.8.7.8.3 0-.5 1.5.2 3.3 1.4 14.2 10 20.7 23.3 21 42.9l.2 9.5-17 .3c-9.3.1-17.7.2-18.5.2-.8.1-9.8 0-20-.1-17-.1-42.7.8-44 1.6-.3.2-3.3.6-6.7 1-8 .8-25.1 5.5-32.5 8.8-3.1 1.4-5.9 2.3-6.2 1.9-.3-.3-.6-.1-.6.5s-1.2 1.6-2.7 2.2c-7.4 2.9-21.1 14.5-28 23.6-3.1 4.2-9 14.3-9.4 16-.1.5-.6 2.1-1.1 3.5-2.6 6.6-4.5 19.8-4.2 29.9.6 26.9 13.1 50.1 34.6 64.2 12.1 8 23.3 12.4 39.3 15.4 10 1.9 39.3 2.6 48.5 1.2 16.2-2.5 27.3-6.6 39.5-14.5 9.1-6 24-21 28.9-29 2.1-3.5 3.9-6.2 4.1-6 .2.2.6 2.1.9 4.3.4 2.2 1.1 6.7 1.7 10 .5 3.3 1.2 7.8 1.4 10 .3 2.2.9 6.3 1.4 9 .5 2.7.7 5.3.5 5.7-.2.3 0 .9.5 1.3.6.3.8 1.2.5 2-.4.9.1 1.4 1.3 1.4h18.8c9.4 0 17.9 0 19 .1 2.7.2 2.7.2 13 0l9-.1-.1-91.7c-.1-83.2-.4-96.1-2-104.2-.3-1.4-.7-3.9-1-5.5-3-16.5-14.9-38.3-27.1-49.5-8.5-7.8-18.4-15.3-20.3-15.5-.3 0-1.2-.5-2-1-1.8-1.2-10.9-5.5-11.3-5.3-.1 0-2.1-.9-4.4-2.1-2.4-1.2-4.3-1.9-4.3-1.7 0 .3-1.9-.1-4.1-1-2.3-.8-5.1-1.6-6.3-1.9-1.2-.2-3.2-.7-4.6-1-11.2-2.5-22.1-3.6-38.8-3.9-6.2-.1-11.4-.1-11.5 0zm63.1 165.3c.9.1 1.1 1 .8 3.1-.3 1.6-.9 4.4-1.2 6.2-1.6 8.8-7.7 22.6-14.5 32.8-9 13.5-22.8 23.5-35.4 25.6-1.6.3-4.6.9-6.5 1.3-7.9 1.6-25 .3-33-2.6-15.2-5.6-22.3-15.1-22.6-30.2-.2-7.5.1-8.9 2.8-14.3 3.1-5.9 13.2-16.3 15-15.2.4.3.8 0 .8-.5 0-.6.8-1.1 1.8-1.1s2.3-.5 3-1.2c.7-.7 1.2-.8 1.2-.4 0 .5.7.3 1.5-.4s1.5-1 1.5-.6c0 .3 1.2.1 2.7-.5 1.4-.5 6.5-1.2 11.2-1.6 4.7-.3 8.7-.6 8.8-.7.1-.1 59.9.2 62.1.3zm-630.1-158.2c-.3.2.2 2.3 1 4.6s1.6 4.9 1.8 5.7c.3 1.3 8.1 28.4 10.5 36.3.5 1.5 1 3.1 1.1 3.5.1.4.3 1.1.5 1.7.5 1.3 5.5 18.5 6.1 21 .3 1.1 1.7 5.8 3 10.5 1.4 4.7 2.9 9.8 3.3 11.5.4 1.6 4.7 16 9.4 32 4.8 15.9 8.8 29.7 8.9 30.5.2.8 1.3 4.6 2.5 8.5 3.2 10.5 13.2 44.8 13.6 46.5.2.8.6 2.2.9 3 .3.8.8 2.4 1 3.5.3 1.1 2.9 9.9 5.7 19.5 7.9 26.8 10.1 34.4 10.4 35.8.4 2.1 2 3.1 5.1 3.2h8c2.8 0 8 .1 11.8.3 3.7.1 6.7 0 6.7-.3 0-.6 9.8-.3 11.6.4.7.3 1.6.1 1.9-.3.3-.5 2-.6 3.7-.2 1.8.4 4.7.5 6.3.3 1.7-.1 3.9-.4 5-.6 1.1-.1 3.2.1 4.6.5 1.5.4 3.2.3 3.9-.1.7-.4 2.5-.4 4 0 2.7.8 2.9.6 4.1-3.8.8-2.6 1.4-5 1.5-5.5.1-.4.2-.8.4-1 .1-.1.3-.9.5-1.8.1-.8 1.9-7.1 3.9-14 2-6.8 3.8-13.4 4-14.6.3-1.2 1-3.1 1.6-4.2.6-1.2.8-2.1.5-2.1-.3 0 .1-1.6.9-3.5s1.3-3.5 1.1-3.5c-.3 0 0-1.2.6-2.8.6-1.5 1.2-3.4 1.4-4.2.2-.8 1.5-5.6 2.9-10.5 1.5-5 2.8-9.7 3-10.5.2-.8 1.6-5.6 3-10.5 2.6-8.8 3.3-11.5 4.1-14.5.2-.8.4-1.5.5-1.5.1 0 .3-.7.5-1.5.4-2.5 4.6-17.4 5.2-19 .3-.8.7-2 .9-2.5.1-.6 1.9-6.6 3.9-13.5 1.9-6.9 3.7-13.2 3.9-14 .2-.8 1.6-5.7 3.1-10.9 1.5-5.1 2.8-9.8 3-10.5.1-.6.5-1.8.8-2.6.3-.8.9-2.9 1.3-4.5.4-1.7.8-3.2.9-3.5.1-.5 2.9-10.2 4.2-14.5.5-1.5.9-1 2 2.5.7 2.5 1.5 5.2 1.7 6 .2.8 1 3.5 1.7 6s1.4 4.9 1.5 5.5c.2.5 1 3.5 1.9 6.5 1.7 6 4.4 15.6 5 18 .4 1.5 1.2 4.1 9 31 2 6.9 4.3 15 5.1 18 .8 3 4.4 15.6 8 28 3.6 12.4 6.7 23.2 6.9 24 .2.8 1.6 5.5 3 10.5 1.5 4.9 2.9 10 3.1 11.2.2 1.2.9 3.5 1.5 5 .6 1.6 1.2 3.6 1.4 4.5.2.9 1.8 6.5 3.6 12.5 1.7 5.9 3.4 12 3.6 13.5.5 2.7.8 2.8 6.2 2.9 3.1 0 8.3 0 11.6-.1 3.3-.1 6.7-.1 7.5-.1h33c.8 0 4.8 0 8.9.1 4.1 0 7.7-.3 8.1-.7.4-.4 1.2-2.6 1.8-4.8.6-2.2 3.1-10.8 5.5-19 2.5-8.3 7-23.6 10.1-34.1 3-10.5 6-20.2 6.5-21.5.5-1.3.9-2.7 1-3.2 0-.4.1-.8.2-1 0-.1.2-.9.4-1.7.2-.8 1.8-6.2 3.5-12s3.2-11.3 3.3-12.2c.1-1 .4-1.8.7-1.8.4 0 .7-.6.7-1.3 0-1.2 8.1-28.9 13-44.7 1.5-4.7 2.8-9.2 2.9-10 .4-1.7 14.2-48.7 17.6-59.5 1.2-3.9 2.3-7.5 2.4-8 .1-.6 1.4-5.1 2.9-10 1.5-5 3-10.4 3.5-12.1.4-1.8 1-3.6 1.3-4.1.3-.5.8-2 1.1-3.4.7-3.4 1.4-6 2.4-9.5l1-3.1-35.6.1-35.6.1-1.2 4.7c-.6 2.7-1 4.8-.7 4.8.3 0 0 .6-.6 1.3-.6.8-.8 1.7-.5 2 .3.3.2 1.2-.2 1.9-.5.7-1 2.2-1.1 3.2-.2 1.1-1.1 4.7-1.9 8-.9 3.4-1.8 6.9-2 7.9-.2 1-.5 2.6-.8 3.5-.3.9-.7 2.8-1 4.2-.3 1.4-3 12.5-6.1 24.8-3 12.3-5.7 23.3-5.9 24.5-.2 1.2-1.4 5.8-2.5 10.3-1.2 4.5-2.3 9-2.5 10-.3 1-1.6 6.8-3.1 12.9-1.5 6-2.8 11.7-3 12.5-.2.8-2.2 8.9-4.5 18-2.2 9.1-4.3 17.4-4.6 18.5-3.5 15.5-6.3 25.7-6.7 24.5-.8-2.1-4.8-15.9-5.2-17.9-.2-.9-.8-2.8-1.3-4.2-.6-1.4-1.3-4.3-1.6-6.3-.4-2.1-.9-4.3-1.3-5-.4-.6-.8-1.6-.9-2.1-.1-.6-3.2-11.8-6.9-25s-6.9-24.7-7-25.5c-.2-.8-.4-1.6-.5-1.8-.3-.2-.4-.7-1.4-4.7-.4-1.7-1.1-4.1-1.6-5.5-.5-1.4-2.7-9.5-5-18s-4.4-16.2-4.7-17c-.4-.8-.7-2-.9-2.5-.4-1.7-5.9-21.4-9.3-33.5-1.2-4.1-2.3-8.2-2.5-9.1-.8-3-2.8-10.4-3.4-11.9-.3-.8-.7-2.4-.9-3.5-.2-1.1-.5-2.5-.7-3.1-.3-.8-12.3-1.1-40.2-1l-39.7.1-1.7 5.2c-.9 2.9-1.6 5.3-1.5 5.3.2 0-.4 2.1-1.2 4.7-1.7 5.5-6.2 21.1-6.7 23.3-.5 2.1-2.8 10.1-7.1 25.5-5.2 18.3-7.5 26.7-8 29-.3 1.1-1.6 5.6-2.9 10-1.4 4.4-2.8 9.6-3.1 11.5-.4 1.9-1 3.9-1.3 4.5-.4.5-.8 1.8-.9 2.8-.2 1-2.2 8.2-4.4 16-2.3 7.8-4.2 14.6-4.4 15.2-.1.5-.7 3-1.4 5.5s-1.5 5.2-1.7 6c-.1.8-1.2 4.6-2.4 8.5-2.3 7.8-2.2 7.2-4.9 17.3-1.1 4.1-2.2 7.6-2.5 7.9-.2.3-.8-1.2-1.2-3.3-1-5-1.1-5.3-1.4-5.9-.3-.6-.2-.4-1.5-6-.5-2.2-.9-4.2-1-4.5-.4-1.3-1.6-7.6-1.7-8.5 0-.6-.4-1.7-.9-2.6-.4-.9-1-2.7-1.3-4-.3-1.3-.8-3.5-1.1-4.9-.3-1.4-.9-3.9-1.2-5.5-.7-3.8-.9-4.6-1.5-6.5-.5-1.4-2.1-7.9-3.3-13.8-.7-3.2-1-4.6-4-16.2-1.4-5.8-2.8-11.4-3-12.5-.3-1.1-.9-4.1-1.5-6.6-.6-2.6-1.2-5.3-1.3-6-.2-.8-.5-1.9-.8-2.4-.4-.6-.9-2.6-1.3-4.5-.9-5.2-1.2-6.4-4.5-19.5-1.6-6.6-3.2-13.1-3.4-14.5-.3-1.4-.8-3.2-1.1-4-.3-.8-.8-2.6-1-4-.6-3-6.8-29.2-8.8-37l-1.4-5.5-35.2-.1c-19.3-.1-35.3.1-35.5.3zm727.3.4c0 .5 1.1 3.2 2.4 6.1 1.3 2.9 4.5 10.5 7.1 16.8 2.6 6.3 5.2 12.6 5.8 14 .6 1.4 1.1 2.7 1.2 3 .3.8 3.5 8.3 4.5 10.5.5 1.1 2.1 4.9 3.6 8.5 1.5 3.6 3.4 8.1 4.2 10 .9 1.9 1.6 3.7 1.7 4 .1.7 8.2 20.2 11.2 26.8 1.2 2.9 2.3 5.6 2.3 6.1 0 .4.6 2.1 1.4 3.7.8 1.6 4.4 10.1 8.1 18.9 6.8 16.5 7 17 10.2 24.5 1.1 2.5 3.5 8.3 5.4 13 1.8 4.7 3.6 8.7 3.9 9 .3.3.6.9.7 1.5.2.9 26.8 65.3 29.8 72 .7 1.6 2 4.6 2.8 6.6l1.4 3.5 8.2-.1c4.4 0 8.1.2 8.1.6 0 .3-1.8 4.6-4.1 9.5-4.4 9.6-5.9 13.1-8 18.1-.8 1.8-1.7 3.3-2 3.3-.3 0-.6.6-.6 1.2 0 .7-1.9 5.3-4.3 10.3-3.7 7.9-8.8 19.2-15.2 33.5-1.1 2.5-3.3 7.2-4.8 10.5-4.4 9.3-9.6 20.7-14.2 31.3-2.4 5.3-5.7 12.6-7.5 16.2-1.7 3.6-3 6.6-2.8 6.8.2.2 57.5.4 72.8.2 2 0 3.7-.4 3.7-.9s1.3-3.8 2.9-7.3c1.6-3.5 6.3-14.2 10.6-23.8 4.2-9.6 8.5-19.3 9.5-21.5 1-2.2 4.6-10.5 8-18.5 3.4-8 6.6-15.2 7.1-16 .5-.8 1.2-2.2 1.5-3 .3-.8 1.5-3.4 2.5-5.7 1-2.3 2-4.8 2.1-5.5.2-.7.5-1.5.8-1.8.3-.3 2.7-5.7 5.4-12 4.3-9.9 9.4-21.6 12.6-28.5.5-1.1 4.4-9.9 8.6-19.5 4.2-9.6 8.4-19.3 9.4-21.5 1-2.2 5.9-13.5 11-25 5-11.6 10-22.8 11-25 4.4-9.8 7.2-15.9 9.6-21.8 1.4-3.4 3.9-9 5.5-12.5s2.9-6.5 2.9-6.7c0-.2 1.8-4.3 4-9s4-8.8 4-9c0-.3 9.7-22.5 14.4-33 .8-1.7 2.4-5.3 3.6-8 1.2-2.8 3.3-7.4 4.6-10.3 1.3-2.9 3.5-7.9 4.9-11.2 1.4-3.3 3.6-8.3 4.9-11.2 1.3-2.9 3.8-8.7 5.6-12.8 1.8-4.1 4.3-9.8 5.6-12.6 1.3-2.8 2.4-5.5 2.4-6.1 0-1.3-72.8-1.4-75.2-.1-1 .5-1.8 1.5-1.8 2.3 0 .7-.7 2.6-1.5 4.2-.8 1.5-3.1 6.8-5.1 11.8-2 4.9-4.2 10.3-4.9 12-1.2 3-5.7 13.8-7.7 18.5-2.3 5.6-3.6 8.6-4.6 11-.6 1.4-3.2 7.4-5.6 13.5-2.5 6-5.6 13.5-7 16.6-1.4 3.1-2.2 6-1.9 6.3.4.3.1.6-.5.6-.7 0-1.2.7-1.2 1.5s-.4 2.3-.9 3.3c-1.1 1.8-9.6 22.2-13.1 31.2-1.2 3-2.6 6-3.1 6.6-.5.6-1 1.9-1.2 3-.2 1-1.1 3.7-2.1 5.9s-3.8 8.9-6.3 15c-2.5 6-5.3 12.8-6.2 15-1 2.2-2.8 6.6-4.1 9.9-2.7 6.8-2.4 7.2-8.5-8.4-2-5.2-4.3-10.9-5-12.5-.7-1.7-3.2-8-5.5-14-2.4-6.1-5.1-12.9-6.1-15.2-1.1-2.3-1.9-4.5-1.9-4.8 0-.4-.7-2.1-1.5-3.8-.7-1.8-3.2-7.9-5.5-13.7-2.2-5.8-4.5-11.5-5-12.8-2-4.5-3.2-7.6-22.2-55.3l-19.3-48.6h-38.7c-21.4 0-38.8.4-38.8.8z"/></svg>